<svg xmlns="http://www.w3.org/2000/svg" viewBox="0 0 100 100">
  <defs>
    <linearGradient id="goldGradient" x1="0%" y1="0%" x2="100%" y2="100%">
      <stop offset="0%" stop-color="#FFDF73" />
      <stop offset="50%" stop-color="#D4AF37" />
      <stop offset="100%" stop-color="#997A00" />
    </linearGradient>
    <linearGradient id="silverGradient" x1="0%" y1="0%" x2="100%" y2="100%">
      <stop offset="0%" stop-color="#FFFFFF" />
      <stop offset="50%" stop-color="#C0C0C0" />
      <stop offset="100%" stop-color="#808080" />
    </linearGradient>
    <filter id="brushStyle">
      <feTurbulence type="fractalNoise" baseFrequency="0.06" numOctaves="3" result="noise" />
      <feDisplacementMap in="SourceGraphic" in2="noise" scale="2.5" xChannelSelector="R" yChannelSelector="G" />
    </filter>
  </defs>
  
  <g filter="url(#brushStyle)">
    <path d="M 50 2 L 56 10 A 42 42 0 0 1 65 12 L 73 5 L 79 12 L 74 20 A 42 42 0 0 1 81 27 L 90 23 L 94 33 L 85 38 A 42 42 0 0 1 85 48 L 94 53 L 90 63 L 81 59 A 42 42 0 0 1 74 66 L 79 74 L 73 81 L 65 74 A 42 42 0 0 1 56 76 L 50 84 L 44 76 A 42 42 0 0 1 35 74 L 27 81 L 21 74 L 26 66 A 42 42 0 0 1 19 59 L 10 63 L 6 53 L 15 48 A 42 42 0 0 1 15 38 L 6 33 L 10 23 L 19 27 A 42 42 0 0 1 26 20 L 21 12 L 27 5 L 35 12 A 42 42 0 0 1 44 10 L 50 2 Z" fill="none" stroke="url(#silverGradient)" stroke-width="2.5" stroke-linecap="round" stroke-linejoin="round"/>
    
    <circle cx="50" cy="43" r="28" fill="#141414" stroke="url(#goldGradient)" stroke-width="4.5"/>
    
    <line x1="50" y1="19" x2="50" y2="25" stroke="url(#goldGradient)" stroke-width="2.5" stroke-linecap="round"/>
    <line x1="50" y1="61" x2="50" y2="67" stroke="url(#goldGradient)" stroke-width="2.5" stroke-linecap="round"/>
    <line x1="26" y1="43" x2="32" y2="43" stroke="url(#goldGradient)" stroke-width="2.5" stroke-linecap="round"/>
    <line x1="68" y1="43" x2="74" y2="43" stroke="url(#goldGradient)" stroke-width="2.5" stroke-linecap="round"/>
    
    <line x1="50" y1="43" x2="50" y2="26" stroke="url(#goldGradient)" stroke-width="3.5" stroke-linecap="round"/>
    <line x1="50" y1="43" x2="65" y2="43" stroke="url(#silverGradient)" stroke-width="2.5" stroke-linecap="round"/>
    
    <circle cx="50" cy="43" r="4" fill="#ff8c00" filter="none"/>
  </g>
</svg>
